<?xml version="1.0" encoding="utf-8"?>
<svg xmlns="http://www.w3.org/2000/svg" viewBox="-396.26 139.809 144.7749 25.2795" width="144.775px" height="25.2795px" preserveAspectRatio="none"><g id="object-11" transform="matrix(1, 0, 0, 1, -1.1368683772161603e-13, 0)"><path d="M -296.72 143.249 L -292.76 143.246 L -292.75 163.873 C -295.93 165.049 -299.87 165.551 -303.11 164.41 C -304.39 163.861 -305.46 162.833 -306.12 161.51 C -307.21 159.347 -307.33 156.179 -306.71 153.837 C -305.39 148.877 -300.63 148.558 -296.72 149.845 L -296.72 143.249 Z M -299.76 161.328 C -298.73 161.336 -297.71 161.194 -296.72 160.907 C -296.72 158.464 -296.69 155.933 -296.73 153.498 C -297.89 153.088 -298.97 152.707 -300.21 152.801 C -302.94 153.241 -303.5 155.285 -303.18 157.97 C -302.94 160.008 -301.64 161.226 -299.76 161.328 Z" style="stroke-width: 1; fill: rgb(255, 255, 255);" id="object-0"/><path d="M -279.61 143.346 L -275.7 143.351 L -275.7 163.88 C -278.88 165.061 -282.87 165.573 -286.09 164.365 C -287.29 163.714 -288.22 163.018 -288.89 161.714 C -290.63 158.354 -290.5 152.277 -287.06 150.172 C -284.72 148.746 -282.05 149.135 -279.61 149.819 L -279.61 143.346 Z M -282.36 161.337 C -281.43 161.329 -280.51 161.19 -279.61 160.923 L -279.61 153.498 C -280.87 153.014 -281.82 152.684 -283.18 152.793 C -284.05 152.959 -285.07 153.265 -285.51 154.158 C -286.96 157.131 -286 161.4 -282.36 161.337 Z" style="stroke-width: 1; fill: rgb(255, 255, 255);" id="object-1"/><path d="M -344.54 143.231 L -340.73 143.237 C -337.77 150.442 -334.89 157.787 -331.88 164.949 L -336.22 164.955 C -337 163.172 -337.71 161.214 -338.41 159.386 L -345.21 159.386 C -344.77 158.217 -344.18 156.898 -343.69 155.737 L -339.81 155.758 L -340.65 153.648 C -341.39 151.789 -342.12 149.918 -342.82 148.037 C -344.94 153.658 -347.24 159.357 -349.44 164.953 L -353.44 164.948 C -352.75 162.992 -351.45 160.047 -350.63 158.073 C -348.57 153.137 -346.55 148.19 -344.54 143.231 Z" style="stroke-width: 1; fill: rgb(255, 255, 255);" id="object-2"/><path d="M -396.23 143.379 C -393.98 143.448 -391.7 143.361 -389.44 143.38 C -387.27 143.399 -383.89 143.121 -382.24 144.949 C -380.04 147.406 -380.24 152.244 -382.5 154.63 C -384.6 156.838 -386.77 157.215 -389.56 157.246 C -389.82 155.969 -389.97 154.925 -390.04 153.62 C -390 153.619 -389.97 153.617 -389.93 153.616 C -387.27 153.485 -384.74 152.646 -384.92 149.151 C -385.45 147.102 -386.83 147.182 -388.53 147.189 C -389.75 147.194 -391 147.226 -392.22 147.272 L -392.22 165.004 C -393.55 164.934 -394.92 164.964 -396.26 164.976 C -396.13 162.633 -396.24 158.4 -396.25 155.97 L -396.23 143.379 Z" style="stroke-width: 1; fill: rgb(57, 167, 81);" id="object-3"/><path d="M -318.41 149.194 C -317.78 149.14 -317.15 149.111 -316.52 149.108 C -314.63 149.107 -312.56 149.409 -311.17 150.916 C -309.49 152.719 -309.87 155.84 -309.87 158.209 L -309.89 164.964 L -312 164.933 C -312.6 164.484 -312.87 164.195 -313.39 163.636 C -316.03 165.142 -319 165.655 -321.67 163.923 C -323.76 162.26 -323.94 158.165 -321.73 156.552 C -319.58 154.972 -316.24 155.282 -313.78 155.735 C -313.78 155.379 -313.77 154.61 -313.85 154.302 C -314.75 151.157 -319.94 152.636 -322.04 153.232 L -322.04 149.948 C -320.76 149.587 -319.74 149.323 -318.41 149.194 Z M -315.57 161.681 C -314.91 161.413 -314.35 161.117 -313.81 160.628 L -313.8 158.585 C -315.33 158.343 -316.21 158.157 -317.77 158.336 C -320.9 159.243 -319.83 162.668 -315.57 161.681 Z" style="stroke-width: 1; fill: rgb(255, 255, 255);" id="object-4"/><path d="M -373.61 149.178 C -367.24 148.44 -365.06 152.124 -365.75 158.535 L -375.49 158.544 C -375.25 159.599 -375.12 160.235 -374.22 160.922 C -372.65 162.131 -368.9 161.717 -367.06 161.376 C -366.83 161.311 -366.75 161.306 -366.5 161.298 C -366.14 161.726 -366.3 163.786 -366.3 164.534 C -369.35 165.392 -374.02 165.424 -376.68 163.402 C -379.84 160.997 -380.04 154.913 -377.97 151.671 C -376.95 150.087 -375.29 149.454 -373.61 149.178 Z M -375.59 155.649 L -371.33 155.654 L -369.19 155.653 C -369.6 152.719 -370.75 152.28 -373.3 152.555 C -374.9 153.222 -375.14 153.951 -375.59 155.649 Z" style="stroke-width: 1; fill: rgb(57, 167, 81);" id="object-5"/><path d="M -265.37 149.125 L -262.37 149.116 C -262.21 149.727 -262.03 150.769 -261.91 151.423 C -259.61 149.523 -256.34 148.172 -253.62 150.079 C -251.13 151.829 -251.5 155.965 -251.51 158.818 L -251.52 164.958 L -255.45 164.952 L -255.45 158.967 C -255.44 156.925 -254.83 152.692 -257.42 152.522 C -259.08 152.412 -260.24 153.247 -261.45 154.349 L -261.45 164.952 L -265.37 164.957 C -265.45 159.772 -265.37 154.327 -265.37 149.125 Z" style="stroke-width: 1; fill: rgb(255, 255, 255);" id="object-6"/><path d="M -363.13 146.141 L -360.01 146.131 C -359.86 147.112 -359.71 148.089 -359.54 149.064 C -358.5 149.142 -356.94 149.095 -355.86 149.094 C -355.83 150.196 -355.83 151.3 -355.84 152.404 L -359.19 152.393 C -359.13 154.306 -359.63 159.562 -358.65 161.093 C -358.24 161.732 -356.91 161.682 -356.21 161.683 L -355.96 161.684 C -355.66 162.008 -355.76 164.404 -355.76 164.983 C -356.3 165.006 -356.84 165.025 -357.38 165.041 C -364 165.23 -363.13 161.869 -363.12 156.1 C -363.1 152.78 -363.11 149.461 -363.13 146.141 Z" style="stroke-width: 1; fill: rgb(57, 167, 81);" id="object-7"/><path d="M -330.09 143.238 L -326.14 143.231 L -326.15 164.952 L -330.09 164.952 L -330.09 143.238 Z" style="stroke-width: 1; fill: rgb(255, 255, 255);" id="object-8"/><path d="M -272.55 149.129 C -271.29 149.087 -269.88 149.114 -268.61 149.11 C -268.64 154.306 -268.65 159.502 -268.61 164.698 C -268.61 164.822 -268.64 164.814 -268.75 164.922 C -269.69 165.02 -271.54 164.955 -272.55 164.948 L -272.55 149.129 Z" style="stroke-width: 1; fill: rgb(255, 255, 255);" id="object-9"/><path d="M -270.13 139.809 C -270 140.045 -269.75 140.824 -269.58 141.173 C -268.75 142.839 -267.97 143.08 -266.45 143.606 C -268.79 144.534 -269.27 144.901 -270.11 147.486 C -271.01 144.902 -271.44 144.552 -273.8 143.586 C -271.43 142.853 -271 142.23 -270.13 139.809 Z" style="stroke-width: 1; fill: rgb(255, 255, 255);" id="object-10"/></g></svg>